<svg id="Calque_1" data-name="Calque 1" xmlns="http://www.w3.org/2000/svg" viewBox="0 0 327.9 106.67"><defs><style>.cls-1,.cls-2,.cls-5,.cls-8,.cls-9{fill:#505050;}.cls-1,.cls-2,.cls-3,.cls-4{stroke:#505050;stroke-width:2px;}.cls-1,.cls-3{stroke-linejoin:round;}.cls-2{stroke-linecap:round;}.cls-2,.cls-4{stroke-miterlimit:10;}.cls-3{fill:#fff;}.cls-4{fill:none;}.cls-5,.cls-8{font-size:43px;}.cls-5,.cls-8,.cls-9{font-family:ForteMT, Forte;}.cls-5{letter-spacing:0.05em;}.cls-6{letter-spacing:-0.04em;}.cls-7{letter-spacing:0.05em;}.cls-8{letter-spacing:0.07em;}.cls-9{font-size:101.65px;}</style></defs><title>logo-grey</title><g id="V2"><g id="Logo"><g id="Shirt"><path class="cls-1" d="M64.16,106c-2.68-2.67-15.55-2.67-18.23,0l3.6-22.64Z" transform="translate(-42 -13.33)"/><path class="cls-1" d="M77.85,106c2.68-2.67,15.54-2.67,18.22,0l-3.6-22.64Z" transform="translate(-42 -13.33)"/><path class="cls-2" d="M88.19,59.41,69.45,50.82c-.84-.39-1-1.83-.37-3.2l7.7-16.5c.63-1.37,1.85-2.17,2.69-1.78l18.74,8.59c.84.4,1,1.84.37,3.21l-7.69,16.5C90.25,59,89,59.81,88.19,59.41Z" transform="translate(-42 -13.33)"/><path class="cls-2" d="M53.78,59.41l18.73-8.59c.85-.39,1-1.83.38-3.2l-7.7-16.5c-.64-1.37-1.85-2.17-2.69-1.78L43.76,37.93c-.84.4-1,1.84-.37,3.21l7.69,16.5C51.72,59,52.93,59.81,53.78,59.41Z" transform="translate(-42 -13.33)"/></g><g id="Wool"><path class="cls-3" d="M77.79,28.72c-2.68,2.68-11,2.68-13.63,0a21.56,21.56,0,1,0,13.63,0Z" transform="translate(-42 -13.33)"/><path class="cls-4" d="M85.67,65.25c0-15.84-14.3-28.66-32-28.66" transform="translate(-42 -13.33)"/><path class="cls-3" d="M64.16,106c2.68-2.67,11-2.68,13.63,0a21.56,21.56,0,1,0-13.63,0Z" transform="translate(-42 -13.33)"/><path class="cls-4" d="M53.71,72.68C53.71,87.26,69,99.05,87.8,99.05" transform="translate(-42 -13.33)"/><rect class="cls-2" x="12.15" y="50.12" width="33.64" height="9.29" rx="1.39" ry="1.39"/></g></g><g id="Title"><g id="Text"><text class="cls-5" x="-42" y="-13.33"><tspan x="139.28" y="84.13">u</tspan><tspan class="cls-6" x="164.3" y="84.13" xml:space="preserve"> T</tspan><tspan class="cls-7" x="192.55" y="84.13">emps</tspan></text><text class="cls-8" transform="translate(146.28 47.13)">a<tspan class="cls-7" x="26.78" y="0">ns l’Air</tspan></text><text class="cls-9" transform="translate(98.95 84.93) scale(0.59 1)">D</text></g></g></g></svg>