<svg id="Calque_1" data-name="Calque 1" xmlns="http://www.w3.org/2000/svg" viewBox="0 0 405.5 131.33"><defs><style>.cls-1,.cls-2,.cls-5{fill:#fff;}.cls-1,.cls-2,.cls-3,.cls-4{stroke:#fff;stroke-width:2px;}.cls-1,.cls-3{stroke-linejoin:round;}.cls-2{stroke-linecap:round;}.cls-2,.cls-4{stroke-miterlimit:10;}.cls-3{fill:#505050;}.cls-4{fill:none;}</style></defs><title>V2-White</title><g id="V2_alpha"><g id="Logo"><g id="Shirt"><path class="cls-1" d="M34.21,124.71c-4-4-23.42-4-27.46,0L12.17,90.6Z"/><path class="cls-1" d="M54.83,124.71c4-4,23.41-4,27.45,0L76.86,90.6Z"/><path class="cls-2" d="M70.41,54.57,42.18,41.63c-1.27-.59-1.52-2.77-.56-4.83L53.21,11.94c1-2.06,2.79-3.26,4.06-2.67L85.5,22.21c1.27.6,1.52,2.77.56,4.83L74.47,51.9C73.51,54,71.68,55.16,70.41,54.57Z"/><path class="cls-2" d="M18.57,54.57,46.79,41.63c1.27-.59,1.53-2.77.56-4.83L35.76,11.94C34.8,9.88,33,8.68,31.7,9.27L3.48,22.21C2.21,22.81,2,25,2.92,27L14.51,51.9C15.47,54,17.3,55.16,18.57,54.57Z"/></g><g id="Wool"><path class="cls-3" d="M54.74,8.33c-4,4-16.5,4-20.53,0a32.47,32.47,0,1,0,20.53,0Z"/><path class="cls-4" d="M66.61,63.36c0-23.86-21.54-43.17-48.14-43.17"/><path class="cls-3" d="M34.21,124.71c4-4,16.5-4,20.53,0a32.47,32.47,0,1,0-20.53,0Z"/><path class="cls-4" d="M18.47,74.55c0,22,23,39.73,51.34,39.73"/><rect class="cls-2" x="19.13" y="60.66" width="50.68" height="14" rx="2.1" ry="2.1"/></g></g><g id="Title"><path class="cls-5" d="M193.74,93.94l-.44.36c-.09,0-.67.49-1.73,1.32q-3.1,2.41-5.12,3.83a26.28,26.28,0,0,1-3.36,2.07,5.27,5.27,0,0,1-2.17.66,2.64,2.64,0,0,1-2.23-1.15,5,5,0,0,1-.84-3,33.43,33.43,0,0,1,.93-7.22,54.67,54.67,0,0,1,2.51-8.12q1.72-4.44,4.23-5.42a5.06,5.06,0,0,1,2.07-.39,3.56,3.56,0,0,1,2.63,1,3.62,3.62,0,0,1,1,2.66,8.49,8.49,0,0,1-.4,2.4,21.54,21.54,0,0,1-1.25,3l-.31.75q-2.22,4.71-2.22,5.72c0,.39.14.59.41.59a1.75,1.75,0,0,0,1-.54,24.88,24.88,0,0,0,1.91-2c.54-.65,1.3-1.47,2.28-2.45l1-1,.83-.88a35.73,35.73,0,0,1,4.26-3.73,5.31,5.31,0,0,1,2.75-1.15c1.37,0,2.07,1.2,2.07,3.59,0,.5-.07,1.39-.19,2.66-.2,2.48-.31,4.58-.31,6.31,0,.34,0,.65,0,.94s0,.65,0,1.1c.12,1.15.2,2,.25,2.66l.19,1.47c0,.52-.47,1-1.4,1.37a8.31,8.31,0,0,1-3.23.59,5.89,5.89,0,0,1-2.88-.66,4.26,4.26,0,0,1-1.82-2,7.28,7.28,0,0,1-.62-3.15c0-.15,0-.42,0-.81S193.7,94.56,193.74,93.94Z"/><path class="cls-5" d="M235.92,85.19l-.25,1.12c-.09.37-.17.7-.24,1s-.12.49-.16.69l-.15.61q-1.86,8-3,10a4.94,4.94,0,0,1-1.55,1.58c-2.17,1.41-3.87,2.12-5.12,2.12a2.89,2.89,0,0,1-2.18-1,3.26,3.26,0,0,1-.89-2.33q0-2.53,2.22-9.36.68-2.18,1.23-3.78c.37-1.07.81-2.27,1.34-3.62s1.12-2.77,1.78-4.29,1.13-2.57,1.41-3.19a45.68,45.68,0,0,1-6.56.5q-3.18,0-3.18-2.22c0-.95.69-2.15,2.07-3.62a9.51,9.51,0,0,1,2.58-2,6.74,6.74,0,0,1,2.87-.56c.72,0,1.71,0,3,.07s3,.14,5.24.29l.73,0,.69.08a27,27,0,0,1,3.75.36,3.43,3.43,0,0,1,1.55.8,2,2,0,0,1,.51,1.36,4.72,4.72,0,0,1-.32,1.69,3.08,3.08,0,0,1-.79,1.27c-.43.48-1.64.89-3.64,1.21a3.5,3.5,0,0,0-.54,0l-.52.11a1.87,1.87,0,0,1,.62,1.37,14.8,14.8,0,0,1-.72,3.13c-.15.39-.52,1.7-1.1,3.9l-.39,1.55Z"/><path class="cls-5" d="M252.28,94.81a1.79,1.79,0,0,0,2,1.55c1.29,0,3-.75,5-2.27a5.88,5.88,0,0,1,2.43-1.32,2.68,2.68,0,0,1,1.44.42c.45.27.67.56.67.85a2,2,0,0,1-.75,1.21A26,26,0,0,1,260,97.93a27.14,27.14,0,0,1-3.43,2.17,20.16,20.16,0,0,1-3.31,1.37,10.4,10.4,0,0,1-2.94.5,7.18,7.18,0,0,1-5.17-1.85,6.48,6.48,0,0,1-1.94-4.92,16.58,16.58,0,0,1,1-5.31A23.9,23.9,0,0,1,247,84.35a18.59,18.59,0,0,1,5-5,12.76,12.76,0,0,1,7-2.43,4.84,4.84,0,0,1,3.81,1.54,6.08,6.08,0,0,1,1.38,4.22A10,10,0,0,1,263.09,87a15.9,15.9,0,0,1-3.25,4.37,17.53,17.53,0,0,1-3.44,2.74,6.18,6.18,0,0,1-3,1A2.52,2.52,0,0,1,252.28,94.81Zm-.06-.82a7.52,7.52,0,0,0,1.81-1.6,12.42,12.42,0,0,0,2.12-3.85,15.63,15.63,0,0,0,.93-3.18,17.83,17.83,0,0,0,.34-3.28c0-1-.2-1.42-.6-1.42s-1.39,1.21-2.53,3.64a31.65,31.65,0,0,0-1.64,4.38,13.93,13.93,0,0,0-.63,3.76A8.92,8.92,0,0,0,252.22,94Z"/><path class="cls-5" d="M296.77,92.67l-7,7.23a13.12,13.12,0,0,1-2.21,1.88,3.59,3.59,0,0,1-1.85.5A3.44,3.44,0,0,1,283,101.1a4.12,4.12,0,0,1-1.07-2.88,9.61,9.61,0,0,1,.32-2.31c.22-.83.65-2.08,1.28-3.73.12-.34.24-.64.35-.89l.27-.63-.1-.11q-2.51,2.64-4.91,5.56-2,2.4-3.2,3.59a12.6,12.6,0,0,1-2.15,1.78,3.25,3.25,0,0,1-1.7.59,3.15,3.15,0,0,1-2.66-1.31,5.93,5.93,0,0,1-1-3.59q0-2.88,2.48-9.28a53.2,53.2,0,0,1,3.43-7.62q1.78-2.68,4.08-2.68a3.92,3.92,0,0,1,2.31.65,2,2,0,0,1,.92,1.72,19.25,19.25,0,0,1-1.47,5.91c-.38,1-.76,2.09-1.16,3.33l.11.11c.63-.71,1.66-1.92,3.07-3.64a53.44,53.44,0,0,1,5.5-6.12q2.4-2.22,4.39-2.22a2.8,2.8,0,0,1,1.68.59,4.31,4.31,0,0,1,1.28,1.59,4.73,4.73,0,0,1,.48,2.08,25.94,25.94,0,0,1-1.6,5.69c-.22.63-.39,1.13-.51,1.49s-.23.68-.34.94l.13.1.65-.65.63-.6.66-.61q.69-.67,3.5-3.54a20.88,20.88,0,0,1,2.92-2.83,3.49,3.49,0,0,1,2-.77,2.89,2.89,0,0,1,2.44,1.1,5.27,5.27,0,0,1,.84,3.24,33.19,33.19,0,0,1-.41,4.16c-.24,2.14-.41,3.81-.51,5s-.14,2.06-.14,2.54,0,.82.07,1.38.11,1.16.21,1.8.25,1.34.42,2.12c.2.94.34,1.68.41,2.22a2.5,2.5,0,0,1-1.35,1.57,5,5,0,0,1-2.5.65,5.54,5.54,0,0,1-4-1.91,7.81,7.81,0,0,1-1.27-1.77,6.87,6.87,0,0,1-.65-2.12,21.64,21.64,0,0,1-.19-3.24c0-.88.1-2.7.31-5.45l-.11-.1Z"/><path class="cls-5" d="M324.39,85.1l.8-1.51a36.42,36.42,0,0,1,2.11-3.34,11.33,11.33,0,0,1,1.72-2,6.32,6.32,0,0,1,1.79-1,4.92,4.92,0,0,1,1.86-.34,5.59,5.59,0,0,1,3.48,1.16,7.34,7.34,0,0,1,2.33,3.33,14,14,0,0,1,.82,5,17.63,17.63,0,0,1-1.82,7.79,16.88,16.88,0,0,1-4.78,6,9.9,9.9,0,0,1-6.12,2.3,5.61,5.61,0,0,1-3.06-.78,7.07,7.07,0,0,1-2.26-2.66l-.17.44-.16.57q-1.68,5.4-2.67,7.94a8.47,8.47,0,0,1-1.72,3.12,1.86,1.86,0,0,1-1.32.54,2.54,2.54,0,0,1-2.3-1.45,8.22,8.22,0,0,1-.82-4.05,44.35,44.35,0,0,1,.62-6.82,75.88,75.88,0,0,1,1.72-8.11,68,68,0,0,1,2.43-7.52,21.83,21.83,0,0,1,1.93-3.62,9.13,9.13,0,0,1,2-2.24,2.82,2.82,0,0,1,1.49-.42,2.48,2.48,0,0,1,1.83.65,2.53,2.53,0,0,1,.65,1.85,13.23,13.23,0,0,1-.21,2.23c-.1.8-.2,1.72-.28,2.76Zm-2,11a2.73,2.73,0,0,0,2.74,2.11A3.66,3.66,0,0,0,327.82,97a9.29,9.29,0,0,0,2-3.47,14.22,14.22,0,0,0,.73-4.58,16,16,0,0,0-.29-3.31c-.2-.93-.42-1.39-.66-1.39s-.61.46-1.32,1.37a31.66,31.66,0,0,0-2.12,3.17,45.67,45.67,0,0,0-3.28,6.2A12.21,12.21,0,0,0,322.43,96.11Z"/><path class="cls-5" d="M351.66,103.13a3.93,3.93,0,0,0,2.77-1.48,4.5,4.5,0,0,0,1.25-3.06,2.34,2.34,0,0,0-.74-1.81,8.94,8.94,0,0,0-3.6-1.58c-2.73-.79-4.52-1.68-5.34-2.66a3.9,3.9,0,0,1-1.16-2.84A10,10,0,0,1,347,83.76a17.21,17.21,0,0,1,5.52-4.87,13.68,13.68,0,0,1,6.77-1.9,6.39,6.39,0,0,1,3.09.78,6.11,6.11,0,0,1,2.3,2,4.9,4.9,0,0,1,.86,2.78,6,6,0,0,1-.93,3,8.72,8.72,0,0,1-2.34,2.63,4.59,4.59,0,0,1-2.68,1,2.39,2.39,0,0,1-1.25-.31c-.35-.2-.53-.43-.53-.67a4.09,4.09,0,0,1,.21-1.06,15.86,15.86,0,0,0,.57-3.87,5.43,5.43,0,0,0-1-3.08,7.67,7.67,0,0,0-1.66,1.4,8.33,8.33,0,0,0-1.52,2.58,7.36,7.36,0,0,0-.59,2.78,2.42,2.42,0,0,0,.42,1.49,3.27,3.27,0,0,0,1.4.94,20.41,20.41,0,0,0,2.93.85,20.28,20.28,0,0,1,4.62,1.56,6.84,6.84,0,0,1,1,.75,3.87,3.87,0,0,1,1,2.73A6.9,6.9,0,0,1,364,99a15.9,15.9,0,0,1-3.44,3.76,17,17,0,0,1-4.93,3,15.7,15.7,0,0,1-5.43.9,7.76,7.76,0,0,1-4.5-1.14,3.55,3.55,0,0,1-1.64-3.1,4.7,4.7,0,0,1,1.08-2.82,8.47,8.47,0,0,1,2.7-2.34,6.5,6.5,0,0,1,3.17-.91c.77,0,1.16.18,1.16.52a2.18,2.18,0,0,1-.34.85,7,7,0,0,0-1,3.34A3.19,3.19,0,0,0,351.66,103.13Z"/><path class="cls-5" d="M204.08,49v.1L204,49a50.38,50.38,0,0,1-4.4,4.61,20.21,20.21,0,0,1-3.7,2.7,6.67,6.67,0,0,1-3.11.9A6.4,6.4,0,0,1,188,55.26a6.76,6.76,0,0,1-1.88-4.91A12.85,12.85,0,0,1,187,46a23.41,23.41,0,0,1,2.55-4.9,25.33,25.33,0,0,1,6.82-6.67,14.89,14.89,0,0,1,8.17-2.81A10,10,0,0,1,210,33a4,4,0,0,1,2.14,3.43,6.25,6.25,0,0,1-1.06,3.23,3.2,3.2,0,0,1,1.75.29q.36.3.36,1.38c0-.06,0,.29-.12,1.06-.11,1.71-.16,3.3-.16,4.78,0,.78,0,1.36,0,1.76s.05.85.1,1.37.1.93.15,1.24a12.3,12.3,0,0,0,.68,2.4,12.1,12.1,0,0,1-3,2.23,6.36,6.36,0,0,1-2.9.71q-4,0-4-6.66A9.35,9.35,0,0,1,204.08,49Zm1.55-5.92-.5.15a11.18,11.18,0,0,1-2.68.52c-.67,0-1-.17-1-.52a3.54,3.54,0,0,1,.41-.95,7.55,7.55,0,0,0,1.45-4.13,5.14,5.14,0,0,0-.39-2c-.25-.61-.54-.92-.85-.92s-.7.29-1.26.88A23.81,23.81,0,0,0,197,41.42a10.88,10.88,0,0,0-1.41,4.88,4.33,4.33,0,0,0,.58,2.35,1.7,1.7,0,0,0,1.46.93c.5,0,1.43-.53,2.8-1.6A45.69,45.69,0,0,0,205,43.74l.7-.57Z"/><path class="cls-5" d="M230.4,42.88,232,41.07q2.35-2.61,3.74-3.9a11.78,11.78,0,0,1,2.48-1.85,4.77,4.77,0,0,1,2.23-.57,3.06,3.06,0,0,1,2.58,1,5.82,5.82,0,0,1,.75,3.41q0,1-.21,3a41.08,41.08,0,0,0-.31,4.91,27.66,27.66,0,0,0,.26,4.19,11.93,11.93,0,0,0,.54,2,6,6,0,0,1,.26,1.27.74.74,0,0,1-.31.64,7.17,7.17,0,0,1-2.12,1.22,6.4,6.4,0,0,1-2.22.51,4.05,4.05,0,0,1-2.67-1A6.56,6.56,0,0,1,235.1,53a11.49,11.49,0,0,1-.66-4,23.56,23.56,0,0,1,.31-3.54l-.1-.11c-.75.83-1.34,1.48-1.8,2s-.88.94-1.28,1.37c-1.93,2.2-3.56,4.19-4.91,6-.51.69-1,1.29-1.42,1.81a3,3,0,0,1-2.17,1,3.34,3.34,0,0,1-2.68-1.24,4.86,4.86,0,0,1-1-3.21,19.12,19.12,0,0,1,.29-3c.19-1.17.44-2.42.76-3.76s.7-2.7,1.14-4.12.91-2.75,1.43-4a14.37,14.37,0,0,1,2.89-5A3.84,3.84,0,0,1,228.68,32c1.79,0,2.69,1.17,2.69,3.49a36.48,36.48,0,0,1-1.07,7.33Z"/><path class="cls-5" d="M256.69,57.61a4,4,0,0,0,2.78-1.48,4.54,4.54,0,0,0,1.25-3.06,2.31,2.31,0,0,0-.75-1.81,8.88,8.88,0,0,0-3.59-1.58Q252.27,48.5,251,47a3.94,3.94,0,0,1-1.16-2.84A10.06,10.06,0,0,1,252,38.24a17.07,17.07,0,0,1,5.51-4.87,13.71,13.71,0,0,1,6.77-1.9,6.46,6.46,0,0,1,3.1.78,6.26,6.26,0,0,1,2.3,2,4.89,4.89,0,0,1,.85,2.78,6,6,0,0,1-.93,3.05,8.81,8.81,0,0,1-2.34,2.62,4.59,4.59,0,0,1-2.67,1,2.39,2.39,0,0,1-1.25-.31c-.36-.2-.53-.43-.53-.67a4.44,4.44,0,0,1,.2-1.06,15.86,15.86,0,0,0,.57-3.87,5.38,5.38,0,0,0-1-3.07A7.55,7.55,0,0,0,261,36.2a8.28,8.28,0,0,0-1.53,2.58,7.56,7.56,0,0,0-.59,2.78,2.36,2.36,0,0,0,.43,1.49,3.23,3.23,0,0,0,1.39.94,22.47,22.47,0,0,0,2.93.86,20.18,20.18,0,0,1,4.63,1.55,7.59,7.59,0,0,1,.95.75,3.84,3.84,0,0,1,1,2.74,6.89,6.89,0,0,1-1.11,3.6,15.83,15.83,0,0,1-3.43,3.76,17,17,0,0,1-4.94,3,15.6,15.6,0,0,1-5.42.9A7.8,7.8,0,0,1,250.76,60a3.57,3.57,0,0,1-1.64-3.09,4.65,4.65,0,0,1,1.09-2.83,8.47,8.47,0,0,1,2.7-2.34,6.45,6.45,0,0,1,3.16-.9c.77,0,1.16.17,1.16.51a2.11,2.11,0,0,1-.33.85,6.88,6.88,0,0,0-1,3.34A3.23,3.23,0,0,0,256.69,57.61Z"/><path class="cls-5" d="M306.1,37.18a49.27,49.27,0,0,0,1.73-6.11,24.46,24.46,0,0,0,.7-4.89c0-.31-.09-.47-.26-.47s-.76.62-1.45,1.85a27,27,0,0,0-1.73,3.76q-1.5,4.2-2.31,7A41.44,41.44,0,0,0,301.66,43a23.26,23.26,0,0,0-.31,3.85,6,6,0,0,0,.37,2.45,1.24,1.24,0,0,0,1.2.77,5.61,5.61,0,0,0,3.18-1.25,13.33,13.33,0,0,0,3.18-3.29C310,44.48,310.6,44,311,44s.8.43.8,1.27a9.77,9.77,0,0,1-1.73,5.4,13.79,13.79,0,0,1-4.46,4.27,10.59,10.59,0,0,1-5.56,1.64,7.51,7.51,0,0,1-7.88-7.93,22.76,22.76,0,0,1,1.24-6.78,51.12,51.12,0,0,1,7.88-15,23.56,23.56,0,0,1,4.9-4.9,5.47,5.47,0,0,1,3.34-1.11,4.05,4.05,0,0,1,2.53.86,5.47,5.47,0,0,1,1.75,2.42,9,9,0,0,1,.62,3.43,20.66,20.66,0,0,1-1.58,7.93,20.33,20.33,0,0,1-4.43,6.72,14.25,14.25,0,0,1-2.59,2.14,4.23,4.23,0,0,1-2.17.78c-.6,0-.9-.24-.9-.7a3.71,3.71,0,0,1,.67-1.47,31.53,31.53,0,0,0,2.12-4.29l.23-.61C305.88,37.86,306,37.56,306.1,37.18Z"/><path class="cls-5" d="M323.19,31.63h-.05a1,1,0,0,1-.7-.31.93.93,0,0,1-.31-.67,1.64,1.64,0,0,1,.31-.86,3.34,3.34,0,0,0,.54-1.7,2.44,2.44,0,0,0-.35-1.31,4.63,4.63,0,0,0-1.15-1.17,4.84,4.84,0,0,1-1-1,1.62,1.62,0,0,1-.23-.86,1.87,1.87,0,0,1,.64-1.32,8,8,0,0,1,2-1.34,4.77,4.77,0,0,1,1.82-.62,2.6,2.6,0,0,1,1.67.64,4.6,4.6,0,0,1,1.25,1.75,5.63,5.63,0,0,1,.47,2.21c0,1.6-.87,3.28-2.59,5A4.49,4.49,0,0,1,323.19,31.63Z"/><path class="cls-5" d="M350.42,25l-1.57-2.84a3.79,3.79,0,0,1,1.11-.64,15,15,0,0,1,4.8-.67,5.79,5.79,0,0,1,4.39,1.62,10.62,10.62,0,0,1,2.19,4,46.35,46.35,0,0,1,1.58,7.29c.26,1.6.48,2.8.67,3.61.61,2.26,1,3.7,1.21,4.33s.55,1.63,1.07,3c.17.39.4.95.68,1.66s.56,1.39.82,2q.86,2,2.58,5.32a24,24,0,0,1-3.66,2.19,6.76,6.76,0,0,1-2.74.67A5,5,0,0,1,361,56a5.65,5.65,0,0,1-1.84-1.89,26.54,26.54,0,0,1-2-4.78c-.07-.18-.16-.43-.25-.72s-.2-.61-.33-1a13.42,13.42,0,0,1-4.71,1.26c-.64,0-1.2,0-1.66-.05s-2.24-.09-5.53-.15l-.23.5a24.42,24.42,0,0,1-2.67,4.61A6.88,6.88,0,0,1,339,56a11,11,0,0,1-4,.65,4.7,4.7,0,0,1-2-.31,1.05,1.05,0,0,1-.6-1q0-.86,2.84-4.7c.68-.9,1.17-1.6,1.5-2.12-1.81-.34-2.71-1-2.71-1.91,0-.76.72-1.89,2.17-3.39a5.12,5.12,0,0,1,1.92-1.38,12.18,12.18,0,0,1,3.12-.32l2.63-4.84q.57-1.05,1.47-2.64l2.06-3.61C348.1,29.07,349.13,27.27,350.42,25Zm2.23,6.81-4.72,10h7l-2.16-10Z"/><path class="cls-5" d="M377.84,56.76a3.19,3.19,0,0,1-2.12-1.06,6,6,0,0,1-1.35-2.23,10,10,0,0,1-.4-3.12,34.27,34.27,0,0,1,1.59-9.62,22.25,22.25,0,0,1,3.6-7.76,2.67,2.67,0,0,1,2.22-1,2.79,2.79,0,0,1,2.41,1.37,6.27,6.27,0,0,1,.92,3.59,37.31,37.31,0,0,1-.94,7.69,71.61,71.61,0,0,1-2.66,9.15,5,5,0,0,1-1.65,2.59,3,3,0,0,1-1.57.41Zm3.1-26c-1.62-.05-2.43-1-2.43-2.92a9.53,9.53,0,0,1,.71-3.29,8,8,0,0,1,1.62-2.78,2.91,2.91,0,0,1,.94-.7,3.29,3.29,0,0,1,1.23-.2,2.55,2.55,0,0,1,1.9.63,3,3,0,0,1,.6,2.11,9.58,9.58,0,0,1-.63,3.47,7.2,7.2,0,0,1-1.69,2.66,3.15,3.15,0,0,1-2.17,1Z"/><path class="cls-5" d="M398.73,48.62l-.11.52a10.7,10.7,0,0,1-.1,1.27,15.61,15.61,0,0,1-.28,2.06,4,4,0,0,1-.55,1.33,7.28,7.28,0,0,1-1,1.13,5.67,5.67,0,0,1-3.8,1.73,2.52,2.52,0,0,1-2.28-1.14,7,7,0,0,1-.74-3.67,34,34,0,0,1,.45-5,47,47,0,0,1,1.1-5.31l.21-.67a2.84,2.84,0,0,1,.15-.64,34.34,34.34,0,0,1,1.76-5.21,8.51,8.51,0,0,1,1.94-2.73,3.57,3.57,0,0,1,2.27-.8c1.22,0,2,.74,2.22,2.23a6.13,6.13,0,0,0,.7-.73,7.93,7.93,0,0,1,1.16-1.2,1.61,1.61,0,0,1,1-.3q2.22,0,2.22,4.4a20.25,20.25,0,0,1-.52,4.64,14.12,14.12,0,0,1-1.3,3.67c-.53,1-1,1.42-1.57,1.42s-.85-1.07-.85-3.23a14.37,14.37,0,0,0-.19-2.67,3.64,3.64,0,0,0-.61-1.51c-.52,1-.85,3.17-1,6.61C398.86,46.85,398.78,48.11,398.73,48.62Z"/><path class="cls-5" d="M128.57,93l8.56-49a40.61,40.61,0,0,1,1.9-8,7,7,0,0,1,1.62-2.26v-.24h-.5q-1.05,0-4.35,2-3.63,2.15-5,2.14a1.07,1.07,0,0,1-1-.43,2.87,2.87,0,0,1-.27-1.46,19.93,19.93,0,0,1,.81-5.34,24,24,0,0,1,2.1-5.23,10.07,10.07,0,0,1,2.66-3.29,25.06,25.06,0,0,1,8.49-3.24,55.29,55.29,0,0,1,11.65-1.16,18.48,18.48,0,0,1,11.51,3.6q4.76,3.61,7.21,10.69a52.35,52.35,0,0,1,2.47,17.1,90.29,90.29,0,0,1-2.36,20.3,64.48,64.48,0,0,1-6.24,17.13q-9.1,16.37-24.31,16.36a28.43,28.43,0,0,1-8.94-1.34q-4-1.35-5.34-3.3a5.34,5.34,0,0,1-.82-3.24A15.94,15.94,0,0,1,128.57,93Zm24.3-60.75-7.22,46.4c-.05.29-.14,1-.29,2.26a46.92,46.92,0,0,1-1.47,7.45A30.36,30.36,0,0,1,142.06,93a18.24,18.24,0,0,0,2.33.13,16.49,16.49,0,0,0,5.22-.71A10.38,10.38,0,0,0,153.49,90a19.89,19.89,0,0,0,3.38-4.39,44.31,44.31,0,0,0,4.59-12,65.49,65.49,0,0,0,1.6-14.84,63.24,63.24,0,0,0-1.3-13.31,27.46,27.46,0,0,0-3.6-9.44C156.63,33.68,154.86,32.43,152.87,32.23Z"/></g></g></svg>