<svg id="Calque_1" data-name="Calque 1" xmlns="http://www.w3.org/2000/svg" viewBox="0 0 405.5 131.33"><defs><style>.cls-1,.cls-2,.cls-5{fill:#505050;}.cls-1,.cls-2,.cls-3,.cls-4{stroke:#505050;stroke-width:2px;}.cls-1,.cls-3{stroke-linejoin:round;}.cls-2{stroke-linecap:round;}.cls-2,.cls-4{stroke-miterlimit:10;}.cls-3{fill:#fff;}.cls-4{fill:none;}</style></defs><title>V2-Grey</title><g id="V2"><g id="Logo"><g id="Shirt"><path class="cls-1" d="M33.34,123.82c-4-4-23.27-4-27.28,0l5.38-33.89Z"/><path class="cls-1" d="M53.83,123.82c4-4,23.26-4,27.27,0L75.72,89.93Z"/><path class="cls-2" d="M69.31,54.12,41.26,41.27c-1.26-.59-1.51-2.75-.56-4.8l11.52-24.7c1-2,2.77-3.24,4-2.65L84.3,22c1.26.59,1.51,2.75.56,4.8L73.34,51.47C72.39,53.52,70.57,54.71,69.31,54.12Z"/><path class="cls-2" d="M17.8,54.12l28-12.85c1.26-.59,1.52-2.75.56-4.8L34.88,11.77c-1-2-2.77-3.24-4-2.65L2.81,22c-1.27.59-1.52,2.75-.56,4.8l11.51,24.7C14.72,53.52,16.53,54.71,17.8,54.12Z"/></g><g id="Wool"><path class="cls-3" d="M53.74,8.18c-4,4-16.4,4-20.4,0a32.26,32.26,0,1,0,20.4,0Z"/><path class="cls-4" d="M65.53,62.86C65.53,39.15,44.14,20,17.7,20"/><path class="cls-3" d="M33.34,123.82c4-4,16.39-4,20.4,0a32.25,32.25,0,1,0-20.4,0Z"/><path class="cls-4" d="M17.7,74c0,21.82,22.82,39.47,51,39.47"/><rect class="cls-2" x="18.36" y="60.17" width="50.36" height="13.91" rx="2.09" ry="2.09"/></g></g><g id="Title"><path class="cls-5" d="M195.58,94.79l-.44.35c-.09.06-.66.49-1.72,1.31-2,1.61-3.75,2.88-5.08,3.81a26.73,26.73,0,0,1-3.34,2.06,5.35,5.35,0,0,1-2.15.65,2.6,2.6,0,0,1-2.22-1.14,4.87,4.87,0,0,1-.84-3,33,33,0,0,1,.93-7.18,53.63,53.63,0,0,1,2.49-8.07c1.14-2.94,2.55-4.74,4.21-5.39a5,5,0,0,1,2.05-.38,3.54,3.54,0,0,1,2.62,1,3.57,3.57,0,0,1,1,2.64,8.78,8.78,0,0,1-.4,2.38,21.22,21.22,0,0,1-1.24,3l-.31.75c-1.47,3.11-2.2,5-2.2,5.68,0,.39.13.59.41.59a1.76,1.76,0,0,0,1-.54,26.54,26.54,0,0,0,1.9-2c.53-.65,1.28-1.46,2.26-2.44l1-1,.82-.87a35.32,35.32,0,0,1,4.24-3.71,5.23,5.23,0,0,1,2.73-1.14c1.37,0,2.05,1.19,2.05,3.57,0,.49-.06,1.38-.18,2.64q-.3,3.69-.3,6.26c0,.35,0,.66,0,.94s0,.65,0,1.09c.12,1.15.2,2,.25,2.64l.18,1.47c0,.51-.46,1-1.38,1.36a8.24,8.24,0,0,1-3.21.59,5.81,5.81,0,0,1-2.86-.66,4.19,4.19,0,0,1-1.81-1.93,7.22,7.22,0,0,1-.62-3.13c0-.16,0-.43.05-.81S195.54,95.4,195.58,94.79Z"/><path class="cls-5" d="M237.5,86.1l-.26,1.1c-.08.38-.16.7-.23,1s-.13.49-.17.69-.09.4-.14.6q-1.84,7.92-3,9.89a4.88,4.88,0,0,1-1.54,1.57c-2.16,1.4-3.85,2.1-5.09,2.1a2.89,2.89,0,0,1-2.17-.93,3.26,3.26,0,0,1-.88-2.33c0-1.68.73-4.78,2.21-9.3.44-1.44.85-2.69,1.21-3.75s.82-2.26,1.34-3.6,1.11-2.75,1.77-4.25,1.12-2.57,1.4-3.18a45.14,45.14,0,0,1-6.52.5c-2.11,0-3.16-.74-3.16-2.21,0-.94.69-2.14,2.06-3.59a9.31,9.31,0,0,1,2.56-2,6.83,6.83,0,0,1,2.85-.55c.72,0,1.7,0,3,.07s3,.14,5.21.29l.72,0,.69.08a26.74,26.74,0,0,1,3.73.36,3.29,3.29,0,0,1,1.54.79,2,2,0,0,1,.51,1.35,4.85,4.85,0,0,1-.32,1.68A3.37,3.37,0,0,1,244,73.8c-.43.47-1.64.87-3.62,1.2a2.59,2.59,0,0,0-.54,0l-.52.1a1.87,1.87,0,0,1,.62,1.36,14.86,14.86,0,0,1-.71,3.11c-.16.4-.52,1.69-1.1,3.88l-.39,1.55Z"/><path class="cls-5" d="M253.75,95.66a1.78,1.78,0,0,0,2,1.54c1.28,0,2.95-.76,5-2.26a6,6,0,0,1,2.41-1.31,2.71,2.71,0,0,1,1.44.41c.45.27.67.56.67.85a2,2,0,0,1-.75,1.2,25.65,25.65,0,0,1-3.13,2.66,28.82,28.82,0,0,1-3.41,2.16,19.91,19.91,0,0,1-3.29,1.36,10.27,10.27,0,0,1-2.92.5,7.13,7.13,0,0,1-5.14-1.84A6.44,6.44,0,0,1,244.71,96a16.54,16.54,0,0,1,1-5.27,23.82,23.82,0,0,1,2.74-5.51,18.37,18.37,0,0,1,5-5,12.69,12.69,0,0,1,7-2.41,4.8,4.8,0,0,1,3.78,1.52,6,6,0,0,1,1.38,4.2,10.08,10.08,0,0,1-1.09,4.34,15.66,15.66,0,0,1-3.23,4.33A17.09,17.09,0,0,1,257.84,95a6.06,6.06,0,0,1-2.94,1A2.59,2.59,0,0,1,253.75,95.66Zm-.06-.82a7.63,7.63,0,0,0,1.8-1.59,12.28,12.28,0,0,0,2.1-3.83,15.24,15.24,0,0,0,.93-3.16,17.57,17.57,0,0,0,.33-3.26c0-.94-.19-1.41-.59-1.41s-1.38,1.21-2.51,3.62a31.71,31.71,0,0,0-1.63,4.35,13.74,13.74,0,0,0-.63,3.74A8.83,8.83,0,0,0,253.69,94.84Z"/><path class="cls-5" d="M298,93.53l-7,7.18a12.44,12.44,0,0,1-2.2,1.86,3.54,3.54,0,0,1-4.46-.66,4.09,4.09,0,0,1-1.07-2.86,9.4,9.4,0,0,1,.32-2.3A36.86,36.86,0,0,1,284.81,93c.12-.34.24-.64.35-.89s.2-.45.27-.62l-.1-.11q-2.49,2.63-4.88,5.52-2,2.39-3.18,3.57a12.36,12.36,0,0,1-2.13,1.77,3.37,3.37,0,0,1-1.7.59,3.13,3.13,0,0,1-2.64-1.31,5.84,5.84,0,0,1-1-3.57q0-2.85,2.47-9.21a52.93,52.93,0,0,1,3.41-7.57q1.77-2.67,4.05-2.67a3.88,3.88,0,0,1,2.3.65A2,2,0,0,1,283,80.9a19.21,19.21,0,0,1-1.46,5.87c-.37,1-.76,2.08-1.15,3.31l.1.1c.64-.7,1.65-1.9,3.06-3.61A54.61,54.61,0,0,1,289,80.49c1.59-1.47,3-2.21,4.36-2.21a2.77,2.77,0,0,1,1.67.59,4.16,4.16,0,0,1,1.27,1.58,4.69,4.69,0,0,1,.48,2.07,26,26,0,0,1-1.59,5.65c-.22.63-.39,1.13-.51,1.49s-.23.66-.33.92l.13.1.64-.64.63-.6.65-.61q.69-.66,3.48-3.51a21.4,21.4,0,0,1,2.9-2.82,3.52,3.52,0,0,1,2-.75,2.87,2.87,0,0,1,2.43,1.09,5.27,5.27,0,0,1,.83,3.22,32.85,32.85,0,0,1-.41,4.13c-.24,2.12-.41,3.79-.5,5s-.14,2-.14,2.53,0,.82.06,1.37.12,1.16.22,1.79.24,1.33.41,2.1c.2.94.34,1.68.41,2.21a2.5,2.5,0,0,1-1.35,1.57,5,5,0,0,1-2.47.64,5.52,5.52,0,0,1-4-1.9,7.85,7.85,0,0,1-1.27-1.76,7.11,7.11,0,0,1-.64-2.1,21.49,21.49,0,0,1-.19-3.23c0-.87.1-2.67.31-5.41l-.11-.1Z"/><path class="cls-5" d="M325.4,86l.79-1.49a36.73,36.73,0,0,1,2.1-3.32,10.47,10.47,0,0,1,1.71-2,6.34,6.34,0,0,1,1.77-1,5.12,5.12,0,0,1,1.86-.33,5.5,5.5,0,0,1,3.45,1.15,7.26,7.26,0,0,1,2.32,3.31,14.06,14.06,0,0,1,.81,5,17.44,17.44,0,0,1-1.81,7.74,16.83,16.83,0,0,1-4.75,6,9.8,9.8,0,0,1-6.07,2.28,5.6,5.6,0,0,1-3-.77,6.88,6.88,0,0,1-2.25-2.64l-.17.43-.16.57q-1.66,5.37-2.66,7.89a8,8,0,0,1-1.7,3.09,1.84,1.84,0,0,1-1.31.54A2.54,2.54,0,0,1,314,111a8.3,8.3,0,0,1-.82-4,45.17,45.17,0,0,1,.62-6.78,78,78,0,0,1,1.71-8.06,65,65,0,0,1,2.42-7.47,20.77,20.77,0,0,1,1.92-3.59,8.84,8.84,0,0,1,2-2.23,2.8,2.8,0,0,1,1.48-.41,2.45,2.45,0,0,1,1.82.64,2.48,2.48,0,0,1,.64,1.84,14.15,14.15,0,0,1-.2,2.22c-.11.79-.2,1.7-.29,2.73Zm-1.95,10.94a2.73,2.73,0,0,0,2.72,2.11,3.64,3.64,0,0,0,2.63-1.27,9.22,9.22,0,0,0,1.95-3.44,14.14,14.14,0,0,0,.73-4.56,16.37,16.37,0,0,0-.29-3.28c-.2-.93-.42-1.39-.66-1.39s-.6.45-1.31,1.36a29.86,29.86,0,0,0-2.1,3.16,44,44,0,0,0-3.26,6.16A11.22,11.22,0,0,0,323.45,96.94Z"/><path class="cls-5" d="M352.49,103.92a3.93,3.93,0,0,0,2.76-1.47,4.52,4.52,0,0,0,1.25-3,2.27,2.27,0,0,0-.75-1.79A9,9,0,0,0,352.18,96c-2.72-.78-4.49-1.67-5.31-2.64a3.91,3.91,0,0,1-1.16-2.82,10,10,0,0,1,2.15-5.91,17.1,17.1,0,0,1,5.48-4.84A13.58,13.58,0,0,1,360.06,78a6.45,6.45,0,0,1,3.08.77,6.2,6.2,0,0,1,2.29,2,4.92,4.92,0,0,1,.84,2.76,6,6,0,0,1-.92,3,8.8,8.8,0,0,1-2.32,2.6,4.56,4.56,0,0,1-2.66,1,2.35,2.35,0,0,1-1.24-.31c-.36-.2-.53-.42-.53-.66a4.44,4.44,0,0,1,.2-1.06,15.65,15.65,0,0,0,.57-3.85,5.36,5.36,0,0,0-1-3,8,8,0,0,0-1.64,1.38,8.49,8.49,0,0,0-1.51,2.57,7.23,7.23,0,0,0-.59,2.77,2.37,2.37,0,0,0,.42,1.47,3.23,3.23,0,0,0,1.39.94,23.44,23.44,0,0,0,2.91.85A19.79,19.79,0,0,1,364,92.78a6.82,6.82,0,0,1,1,.74,3.85,3.85,0,0,1,1,2.72,6.91,6.91,0,0,1-1.1,3.59,15.91,15.91,0,0,1-3.42,3.73,16.57,16.57,0,0,1-4.9,3,15.47,15.47,0,0,1-5.39.9,7.79,7.79,0,0,1-4.48-1.13,3.54,3.54,0,0,1-1.63-3.08,4.67,4.67,0,0,1,1.08-2.81,8.58,8.58,0,0,1,2.68-2.32,6.41,6.41,0,0,1,3.14-.9c.77,0,1.16.17,1.16.51a2.17,2.17,0,0,1-.33.85,6.86,6.86,0,0,0-1,3.31A3.19,3.19,0,0,0,352.49,103.92Z"/><path class="cls-5" d="M205.85,50.12v.1l-.1-.1a47.21,47.21,0,0,1-4.38,4.58,18.71,18.71,0,0,1-3.67,2.68,6.63,6.63,0,0,1-3.09.9,6.35,6.35,0,0,1-4.75-1.92A6.71,6.71,0,0,1,188,51.48a12.86,12.86,0,0,1,.92-4.31,23.45,23.45,0,0,1,2.54-4.88,25,25,0,0,1,6.78-6.62,14.77,14.77,0,0,1,8.11-2.8,9.87,9.87,0,0,1,5.4,1.35,4,4,0,0,1,2.12,3.4,6.14,6.14,0,0,1-1.05,3.21,3.28,3.28,0,0,1,1.74.29q.36.3.36,1.38c0-.07,0,.28-.13,1-.1,1.69-.15,3.28-.15,4.75q0,1.16,0,1.74c0,.4.05.85.1,1.36s.1.93.15,1.24a12.08,12.08,0,0,0,.67,2.38,12,12,0,0,1-3,2.22,6.38,6.38,0,0,1-2.88.71q-3.94,0-3.95-6.62C205.8,50.81,205.82,50.41,205.85,50.12Zm1.54-5.88-.49.16a11.52,11.52,0,0,1-2.66.51c-.67,0-1-.17-1-.51a3.26,3.26,0,0,1,.42-.95,7.64,7.64,0,0,0,1.43-4.11,5.18,5.18,0,0,0-.38-2c-.26-.61-.54-.92-.85-.92s-.69.3-1.26.88a24.32,24.32,0,0,0-3.78,5.31,10.74,10.74,0,0,0-1.4,4.85,4.32,4.32,0,0,0,.58,2.34,1.68,1.68,0,0,0,1.45.92c.49,0,1.42-.53,2.78-1.59a45,45,0,0,0,4.58-4.21l.7-.56Z"/><path class="cls-5" d="M232,44.06l1.55-1.8q2.34-2.61,3.71-3.88a11.92,11.92,0,0,1,2.47-1.84A4.8,4.8,0,0,1,242,36a3,3,0,0,1,2.57,1,5.82,5.82,0,0,1,.74,3.39c0,.67-.07,1.65-.2,2.95a40.6,40.6,0,0,0-.31,4.88,27.42,27.42,0,0,0,.25,4.16,11.82,11.82,0,0,0,.54,2,5.82,5.82,0,0,1,.26,1.26.76.76,0,0,1-.31.64,7.16,7.16,0,0,1-2.1,1.2,6.14,6.14,0,0,1-2.21.52,4.1,4.1,0,0,1-2.66-1,6.4,6.4,0,0,1-1.84-2.78,11.38,11.38,0,0,1-.66-4,23.43,23.43,0,0,1,.31-3.52l-.1-.1c-.74.82-1.33,1.47-1.79,2l-1.27,1.36c-1.91,2.19-3.54,4.17-4.87,5.93-.52.69-1,1.28-1.42,1.8a3,3,0,0,1-2.15,1,3.3,3.3,0,0,1-2.67-1.23,4.81,4.81,0,0,1-1-3.19,19,19,0,0,1,.29-3c.18-1.16.44-2.41.75-3.73s.7-2.69,1.13-4.1.91-2.73,1.43-4a14.13,14.13,0,0,1,2.87-4.93,3.8,3.8,0,0,1,2.8-1.15q2.67,0,2.67,3.46A36.57,36.57,0,0,1,231.91,44Z"/><path class="cls-5" d="M258.13,58.69a3.93,3.93,0,0,0,2.76-1.47,4.51,4.51,0,0,0,1.25-3,2.27,2.27,0,0,0-.75-1.8,9,9,0,0,0-3.57-1.57c-2.72-.78-4.49-1.67-5.31-2.64a3.9,3.9,0,0,1-1.15-2.82,10,10,0,0,1,2.14-5.91A17.1,17.1,0,0,1,259,34.6a13.58,13.58,0,0,1,6.72-1.88,6.45,6.45,0,0,1,3.08.77,6.2,6.2,0,0,1,2.29,2,4.92,4.92,0,0,1,.84,2.76,6,6,0,0,1-.92,3,8.8,8.8,0,0,1-2.32,2.6A4.56,4.56,0,0,1,266,45a2.35,2.35,0,0,1-1.24-.31c-.35-.2-.53-.42-.53-.66a4.09,4.09,0,0,1,.21-1.06,16.08,16.08,0,0,0,.56-3.85,5.43,5.43,0,0,0-1-3,7.88,7.88,0,0,0-1.65,1.38A8.49,8.49,0,0,0,260.88,40a7.27,7.27,0,0,0-.59,2.77,2.37,2.37,0,0,0,.42,1.47,3.29,3.29,0,0,0,1.39.94A21.81,21.81,0,0,0,265,46a20.09,20.09,0,0,1,4.6,1.54,7.58,7.58,0,0,1,.94.74,3.85,3.85,0,0,1,1,2.72,6.91,6.91,0,0,1-1.1,3.59A15.91,15.91,0,0,1,267,58.33a16.45,16.45,0,0,1-4.9,3,15.47,15.47,0,0,1-5.39.9,7.79,7.79,0,0,1-4.48-1.13A3.54,3.54,0,0,1,250.61,58a4.67,4.67,0,0,1,1.08-2.81,8.58,8.58,0,0,1,2.68-2.32,6.41,6.41,0,0,1,3.15-.9c.77,0,1.15.17,1.15.51a2.17,2.17,0,0,1-.33.85,6.86,6.86,0,0,0-1,3.31A3.19,3.19,0,0,0,258.13,58.69Z"/><path class="cls-5" d="M307.23,38.39A50.92,50.92,0,0,0,309,32.32a24.71,24.71,0,0,0,.69-4.86c0-.31-.09-.46-.26-.46s-.75.61-1.43,1.83a25,25,0,0,0-1.72,3.73c-1,2.79-1.76,5.11-2.3,6.95a41.15,41.15,0,0,0-1.12,4.63A24.11,24.11,0,0,0,302.5,48a5.86,5.86,0,0,0,.38,2.44,1.22,1.22,0,0,0,1.19.77,5.64,5.64,0,0,0,3.16-1.24,13.32,13.32,0,0,0,3.15-3.27c.74-1,1.31-1.52,1.72-1.52s.8.42.8,1.26a9.61,9.61,0,0,1-1.72,5.36A13.64,13.64,0,0,1,306.75,56a10.56,10.56,0,0,1-5.53,1.63,7.49,7.49,0,0,1-7.83-7.88A22.75,22.75,0,0,1,294.62,43a50.77,50.77,0,0,1,7.83-14.87,23.61,23.61,0,0,1,4.88-4.88,5.46,5.46,0,0,1,3.31-1.1,4.09,4.09,0,0,1,2.52.86,5.46,5.46,0,0,1,1.74,2.4,9.12,9.12,0,0,1,.62,3.41,20.6,20.6,0,0,1-1.58,7.88,20.18,20.18,0,0,1-4.4,6.68A15,15,0,0,1,307,45.53a4.26,4.26,0,0,1-2.16.77c-.59,0-.89-.24-.89-.7a3.84,3.84,0,0,1,.66-1.46,31,31,0,0,0,2.11-4.26c.07-.19.14-.39.23-.6S307.11,38.77,307.23,38.39Z"/><path class="cls-5" d="M324.2,32.87h-.05a1,1,0,0,1-.69-.31.89.89,0,0,1-.31-.66,1.64,1.64,0,0,1,.31-.85,3.31,3.31,0,0,0,.54-1.69,2.41,2.41,0,0,0-.35-1.3,4.74,4.74,0,0,0-1.14-1.17,4.86,4.86,0,0,1-1-1,1.6,1.6,0,0,1-.23-.86,1.85,1.85,0,0,1,.65-1.3,7.89,7.89,0,0,1,2-1.34,4.58,4.58,0,0,1,1.81-.61,2.55,2.55,0,0,1,1.65.64,4.28,4.28,0,0,1,1.25,1.73,5.56,5.56,0,0,1,.46,2.19q0,2.38-2.57,5A4.44,4.44,0,0,1,324.2,32.87Z"/><path class="cls-5" d="M351.27,26.3l-1.57-2.82a3.92,3.92,0,0,1,1.11-.64,14.79,14.79,0,0,1,4.77-.67,5.73,5.73,0,0,1,4.36,1.62,10.61,10.61,0,0,1,2.18,3.95A47.32,47.32,0,0,1,363.68,35c.26,1.59.49,2.79.67,3.59.6,2.24,1,3.68,1.2,4.3s.55,1.62,1.07,3c.17.39.39,1,.68,1.65s.55,1.38.8,2c.57,1.34,1.42,3.1,2.57,5.29A23,23,0,0,1,367,57a6.64,6.64,0,0,1-2.72.67,5,5,0,0,1-2.53-.59A5.56,5.56,0,0,1,360,55.18,27.59,27.59,0,0,1,358,50.43c-.07-.19-.15-.43-.25-.72s-.2-.61-.32-1A13.29,13.29,0,0,1,352.74,50c-.63,0-1.18,0-1.65-.05s-2.22-.09-5.48-.16l-.24.51a24.87,24.87,0,0,1-2.65,4.57,6.83,6.83,0,0,1-2.84,2.21,10.76,10.76,0,0,1-4,.64,4.53,4.53,0,0,1-2-.31,1,1,0,0,1-.59-1q0-.84,2.82-4.67c.67-.89,1.17-1.59,1.49-2.1-1.79-.34-2.69-1-2.69-1.9,0-.75.72-1.87,2.15-3.36A5.12,5.12,0,0,1,339,43a11.91,11.91,0,0,1,3.09-.32l2.62-4.81c.37-.69.86-1.57,1.46-2.62l2-3.59C349,30.34,350,28.54,351.27,26.3Zm2.21,6.77-4.69,10h6.94l-2.15-10Z"/><path class="cls-5" d="M378.51,57.85a3.28,3.28,0,0,1-2.11-1.06,6,6,0,0,1-1.34-2.22,9.78,9.78,0,0,1-.4-3.09,34.14,34.14,0,0,1,1.58-9.56,21.87,21.87,0,0,1,3.58-7.71,2.65,2.65,0,0,1,2.21-1,2.74,2.74,0,0,1,2.39,1.36,6.24,6.24,0,0,1,.92,3.56,37.49,37.49,0,0,1-.94,7.64,71.94,71.94,0,0,1-2.64,9.1,5,5,0,0,1-1.64,2.56,2.84,2.84,0,0,1-1.56.42Zm3.08-25.8c-1.61,0-2.41-1-2.41-2.9a9.4,9.4,0,0,1,.7-3.27,7.81,7.81,0,0,1,1.61-2.76,2.94,2.94,0,0,1,.93-.69,3.07,3.07,0,0,1,1.22-.21,2.51,2.51,0,0,1,1.89.63,3,3,0,0,1,.6,2.09,9.43,9.43,0,0,1-.63,3.45A7.14,7.14,0,0,1,383.82,31a3.14,3.14,0,0,1-2.15,1Z"/><path class="cls-5" d="M399.26,49.76l-.1.51a10.87,10.87,0,0,1-.11,1.26,14.09,14.09,0,0,1-.28,2.06,3.8,3.8,0,0,1-.54,1.32,7.11,7.11,0,0,1-1,1.11,5.61,5.61,0,0,1-3.77,1.72,2.51,2.51,0,0,1-2.28-1.13,7,7,0,0,1-.73-3.64,33.66,33.66,0,0,1,.45-4.94A46.46,46.46,0,0,1,392,42.75l.21-.66a2.73,2.73,0,0,1,.15-.64,33.23,33.23,0,0,1,1.75-5.18,8.48,8.48,0,0,1,1.92-2.7,3.55,3.55,0,0,1,2.26-.8c1.22,0,1.95.74,2.21,2.21a5.93,5.93,0,0,0,.69-.72,6.89,6.89,0,0,1,1.16-1.19,1.56,1.56,0,0,1,.95-.3q2.21,0,2.2,4.36a20.7,20.7,0,0,1-.51,4.62,14.09,14.09,0,0,1-1.3,3.65c-.52.94-1,1.41-1.55,1.41s-.85-1.07-.85-3.21a14.25,14.25,0,0,0-.19-2.66,3.73,3.73,0,0,0-.6-1.5q-.78,1.44-1,6.57C399.4,48,399.31,49.25,399.26,49.76Z"/><path class="cls-5" d="M130.83,93.84l8.5-48.72a39.37,39.37,0,0,1,1.9-7.95,6.86,6.86,0,0,1,1.6-2.25v-.24h-.5q-1,0-4.32,2c-2.41,1.42-4.06,2.13-5,2.13a1.06,1.06,0,0,1-1-.43,2.85,2.85,0,0,1-.27-1.45,19.72,19.72,0,0,1,.81-5.31,23.35,23.35,0,0,1,2.09-5.19,9.75,9.75,0,0,1,2.64-3.28,24.92,24.92,0,0,1,8.43-3.21,54.64,54.64,0,0,1,11.58-1.15,18.37,18.37,0,0,1,11.44,3.58q4.71,3.57,7.16,10.61a52.08,52.08,0,0,1,2.45,17,89.63,89.63,0,0,1-2.34,20.17,64.13,64.13,0,0,1-6.2,17q-9,16.26-24.16,16.26a28,28,0,0,1-8.88-1.33q-4-1.34-5.3-3.28a5.28,5.28,0,0,1-.83-3.21A16.11,16.11,0,0,1,130.83,93.84ZM155,33.47,147.8,79.58c-.05.28-.14,1-.28,2.24a46.5,46.5,0,0,1-1.47,7.41,30.39,30.39,0,0,1-1.82,4.61,20.25,20.25,0,0,0,2.32.12,16.29,16.29,0,0,0,5.18-.7,10.28,10.28,0,0,0,3.86-2.4A19.92,19.92,0,0,0,159,86.5a43.59,43.59,0,0,0,4.55-12,64,64,0,0,0,1.6-14.74,62.62,62.62,0,0,0-1.29-13.23,27.41,27.41,0,0,0-3.58-9.37C158.71,34.92,157,33.67,155,33.47Z"/></g></g></svg>