<svg id="Calque_1" data-name="Calque 1" xmlns="http://www.w3.org/2000/svg" viewBox="0 0 405.5 131.33"><defs><style>.cls-1,.cls-2,.cls-5,.cls-7,.cls-9{fill:#fff;}.cls-1,.cls-2,.cls-3,.cls-4{stroke:#fff;stroke-width:2px;}.cls-1,.cls-3{stroke-linejoin:round;}.cls-2{stroke-linecap:round;}.cls-2,.cls-4{stroke-miterlimit:10;}.cls-3{fill:#505050;}.cls-4{fill:none;}.cls-5,.cls-7{font-size:52.9px;}.cls-5,.cls-7,.cls-9{font-family:ForteMT, Forte;}.cls-5{letter-spacing:0.05em;}.cls-6{letter-spacing:-0.04em;}.cls-7{letter-spacing:0.07em;}.cls-8{letter-spacing:0.05em;}.cls-9{font-size:125.05px;}</style></defs><title>V2-White</title><g id="V2_alpha"><g id="Logo"><g id="Shirt"><path class="cls-1" d="M34.21,124.71c-4-4-23.42-4-27.46,0L12.17,90.6Z"/><path class="cls-1" d="M54.83,124.71c4-4,23.41-4,27.45,0L76.86,90.6Z"/><path class="cls-2" d="M70.41,54.57,42.18,41.63c-1.27-.59-1.52-2.77-.56-4.83L53.21,11.94c1-2.06,2.79-3.26,4.06-2.67L85.5,22.21c1.27.6,1.52,2.77.56,4.83L74.47,51.9C73.51,54,71.68,55.16,70.41,54.57Z"/><path class="cls-2" d="M18.57,54.57,46.79,41.63c1.27-.59,1.53-2.77.56-4.83L35.76,11.94C34.8,9.88,33,8.68,31.7,9.27L3.48,22.21C2.21,22.81,2,25,2.92,27L14.51,51.9C15.47,54,17.3,55.16,18.57,54.57Z"/></g><g id="Wool"><path class="cls-3" d="M54.74,8.33c-4,4-16.5,4-20.53,0a32.47,32.47,0,1,0,20.53,0Z"/><path class="cls-4" d="M66.61,63.36c0-23.86-21.54-43.17-48.14-43.17"/><path class="cls-3" d="M34.21,124.71c4-4,16.5-4,20.53,0a32.47,32.47,0,1,0-20.53,0Z"/><path class="cls-4" d="M18.47,74.55c0,22,23,39.73,51.34,39.73"/><rect class="cls-2" x="19.13" y="60.66" width="50.68" height="14" rx="2.1" ry="2.1"/></g></g><g id="Title"><text class="cls-5"><tspan x="176.43" y="102.02">u</tspan><tspan class="cls-6" x="207.2" y="102.02" xml:space="preserve"> T</tspan><tspan x="241.97" y="102.02">emps</tspan></text><text class="cls-7" transform="translate(185.04 56.5)">a<tspan class="cls-8" x="32.95" y="0">ns l’Air</tspan></text><text class="cls-9" transform="translate(126.81 103) scale(0.59 1)">D</text></g></g></svg>